# xmcd
#
# Track frame offsets: 
#        182
#        13205
#        25482
#        28040
#        30332
#        45157
#        45977
#        49287
#        91012
#        102832
#        105682
#        122400
#        131025
#        134455
#        150607
#        178502
#        182575
#        199815
#        203382
#        221745
#        223735
#        244377
#        251457
#        256980
#
# Disc length: 3657 seconds
#
# Revision: 3
# Processed by: cddbd v1.5.2PL0 Copyright (c) Steve Scherf et al.
# Submitted via: ExactAudioCopy v0.95b4
#
DISCID=470e4718
DTITLE=Willy Astor - Gehe Hin Und Meerrettich (Aloneunderholder)
DYEAR=2001
DGENRE=Comedy
TTITLE0=Maschin' scho putzt
TTITLE1=Alltag
TTITLE2=Reklame 1
TTITLE3=Post für Henny and Gerd Badesalz
TTITLE4=Hammämäßisch Hessisch
TTITLE5=Henny and Gerd sind begeistert!
TTITLE6=Reklame 2
TTITLE7=Warte, bis es Dinkel wird
TTITLE8=Dosenöffner
TTITLE9=Reklame 3
TTITLE10=Wein, Web und Gesang
TTITLE11=Ein lupenreiner Landler
TTITLE12=Reklame 4
TTITLE13=Undann kamsi
TTITLE14=Ferien auf dem Booonhof
TTITLE15=Kiko kommt
TTITLE16=Voll Chlore
TTITLE17=Reklame 5
TTITLE18=Vogiraus-Blues
TTITLE19=Reklame 6
TTITLE20=Herr der Schöpfung
TTITLE21=Wally and Stoffl
TTITLE22=Zisterne
TTITLE23=Uno due tre
EXTD=YEAR: 2001 ID3G: 57
EXTT0=
EXTT1=
EXTT2=
EXTT3=
EXTT4=
EXTT5=
EXTT6=
EXTT7=
EXTT8=
EXTT9=
EXTT10=
EXTT11=
EXTT12=
EXTT13=
EXTT14=
EXTT15=
EXTT16=
EXTT17=
EXTT18=
EXTT19=
EXTT20=
EXTT21=
EXTT22=
EXTT23=
PLAYORDER=
